<svg width="69" height="69" viewBox="0 0 69 69" fill="none" xmlns="http://www.w3.org/2000/svg">
<path fill-rule="evenodd" clip-rule="evenodd" d="M34.5 69C53.5538 69 69 53.5538 69 34.5C69 15.4462 53.5538 0 34.5 0C15.4462 0 0 15.4462 0 34.5C0 53.5538 15.4462 69 34.5 69Z" fill="#F04037" fill-opacity="0.1"/>
<path d="M48.3334 38V30C48.3334 23.3334 45.6667 20.6667 39 20.6667H31C24.3334 20.6667 21.6667 23.3334 21.6667 30V38C21.6667 44.6667 24.3334 47.3334 31 47.3334H39C45.6667 47.3334 48.3334 44.6667 48.3334 38Z" stroke="#F04037" stroke-width="2" stroke-linecap="round" stroke-linejoin="round"/>
<path d="M22.36 27.48H47.64" stroke="#F04037" stroke-width="2" stroke-linecap="round" stroke-linejoin="round"/>
<path d="M30.36 20.8133V27.2933" stroke="#F04037" stroke-width="2" stroke-linecap="round" stroke-linejoin="round"/>
<path d="M39.64 20.8133V26.6933" stroke="#F04037" stroke-width="2" stroke-linecap="round" stroke-linejoin="round"/>
<path d="M32 37.2667V35.6667C32 33.6133 33.4533 32.7733 35.2267 33.8L36.6133 34.6L38 35.4C39.7733 36.4267 39.7733 38.1067 38 39.1333L36.6133 39.9333L35.2267 40.7333C33.4533 41.76 32 40.92 32 38.8667V37.2667V37.2667Z" stroke="#F04037" stroke-width="2" stroke-miterlimit="10" stroke-linecap="round" stroke-linejoin="round"/>
</svg>
