<svg width="69" height="69" viewBox="0 0 69 69" fill="none" xmlns="http://www.w3.org/2000/svg">
<path fill-rule="evenodd" clip-rule="evenodd" d="M34.5 69C53.5538 69 69 53.5538 69 34.5C69 15.4462 53.5538 0 34.5 0C15.4462 0 0 15.4462 0 34.5C0 53.5538 15.4462 69 34.5 69Z" fill="#5454D4" fill-opacity="0.1"/>
<path d="M31 35.3333C30.12 35.7733 29.3867 36.4266 28.84 37.24C28.5333 37.7066 28.5333 38.2933 28.84 38.76C29.3867 39.5733 30.12 40.2266 31 40.6666" stroke="#5454D4" stroke-width="2" stroke-linecap="round" stroke-linejoin="round"/>
<path d="M39.2799 35.3333C40.1599 35.7733 40.8932 36.4266 41.4399 37.24C41.7466 37.7066 41.7466 38.2933 41.4399 38.76C40.8932 39.5733 40.1599 40.2266 39.2799 40.6666" stroke="#5454D4" stroke-width="2" stroke-linecap="round" stroke-linejoin="round"/>
<path d="M31 47.3334H39C45.6666 47.3334 48.3333 44.6667 48.3333 38V30C48.3333 23.3334 45.6666 20.6667 39 20.6667H31C24.3333 20.6667 21.6666 23.3334 21.6666 30V38C21.6666 44.6667 24.3333 47.3334 31 47.3334Z" stroke="#5454D4" stroke-width="2" stroke-linecap="round" stroke-linejoin="round"/>
<path d="M21.9733 28.68L47.5999 28.6667" stroke="#5454D4" stroke-width="2" stroke-linecap="round" stroke-linejoin="round"/>
</svg>
